<svg id="Ebene_1" data-name="Ebene 1" xmlns="http://www.w3.org/2000/svg" viewBox="0 0 650.28 530.75"><defs><style>.cls-1{font-size:64.09px;}.cls-1,.cls-2,.cls-3,.cls-4,.cls-5{fill:#d60651;}.cls-1,.cls-2,.cls-3,.cls-4{font-family:OratorStd, Orator Std;}.cls-2{font-size:33.12px;}.cls-3{font-size:37.54px;}.cls-4{font-size:61.75px;}</style></defs><text class="cls-1" transform="matrix(-0.21, -0.96, 0.98, -0.21, 83.66, 324.1)"> </text><text class="cls-1" transform="matrix(-0.03, -0.98, 1, -0.03, 76.18, 291.19)"> </text><text class="cls-1" transform="matrix(0.14, -0.97, 0.99, 0.15, 74.68, 257.49)"> </text><text class="cls-1" transform="matrix(0.32, -0.93, 0.95, 0.32, 79.27, 224.09)"> </text><text class="cls-2" transform="matrix(0.44, -0.88, 0.9, 0.45, 90.63, 191.93)">j</text><text class="cls-2" transform="matrix(0.52, -0.83, 0.85, 0.53, 98.78, 175.43)">e</text><text class="cls-2" transform="matrix(0.6, -0.78, 0.79, 0.61, 108.52, 159.77)">.</text><text class="cls-2" transform="matrix(0.67, -0.72, 0.73, 0.68, 119.7, 145.13)">d</text><text class="cls-2" transform="matrix(0.73, -0.65, 0.66, 0.75, 132.23, 131.61)">e</text><text class="cls-2" transform="matrix(0.79, -0.58, 0.59, 0.81, 145.99, 119.34)">s</text><text class="cls-2" transform="matrix(0.84, -0.5, 0.51, 0.86, 160.84, 108.42)">i</text><text class="cls-2" transform="matrix(0.88, -0.42, 0.43, 0.9, 176.67, 98.95)">g</text><text class="cls-2" transform="matrix(0.92, -0.33, 0.34, 0.94, 193.3, 91.02)">n</text><text class="cls-2" transform="matrix(0.95, -0.25, 0.25, 0.97, 210.62, 84.68)">.</text><text class="cls-2" transform="matrix(0.96, -0.16, 0.16, 0.99, 228.49, 79.99)"> </text><text class="cls-2" transform="matrix(0.97, -0.07, 0.07, 1, 246.7, 76.97)">m</text><text class="cls-2" transform="matrix(0.98, 0.02, -0.02, 1, 265.12, 75.63)">i</text><text class="cls-2" transform="matrix(0.97, 0.11, -0.12, 0.99, 283.57, 75.99)">x</text><text class="cls-2" transform="matrix(0.96, 0.2, -0.21, 0.98, 301.88, 78.06)">e</text><text class="cls-2" transform="matrix(0.93, 0.29, -0.3, 0.95, 319.92, 81.84)">d</text><text class="cls-2" transform="matrix(0.9, 0.38, -0.39, 0.92, 337.55, 87.31)"> </text><text class="cls-2" transform="matrix(0.86, 0.46, -0.47, 0.88, 354.56, 94.42)">m</text><text class="cls-2" transform="matrix(0.81, 0.54, -0.55, 0.83, 370.82, 103.08)">e</text><text class="cls-2" transform="matrix(0.76, 0.62, -0.63, 0.78, 386.19, 113.25)">d</text><text class="cls-2" transform="matrix(0.7, 0.69, -0.7, 0.71, 400.53, 124.85)">i</text><text class="cls-2" transform="matrix(0.63, 0.75, -0.77, 0.64, 413.67, 137.73)">a</text><text class="cls-2" transform="matrix(0.55, 0.81, -0.83, 0.56, 425.51, 151.81)"> </text><text class="cls-2" transform="matrix(0.47, 0.86, -0.88, 0.48, 435.92, 166.98)">a</text><text class="cls-2" transform="matrix(0.38, 0.9, -0.92, 0.39, 444.8, 183.11)">r</text><text class="cls-2" transform="matrix(0.29, 0.93, -0.95, 0.3, 452.02, 200.01)">t</text><text class="cls-2" transform="matrix(0.2, 0.96, -0.98, 0.2, 457.54, 217.55)">.</text><text class="cls-3" transform="matrix(0.11, 0.97, -0.99, 0.11, 461.18, 235.44)"> </text><text class="cls-3" transform="matrix(-0.01, 0.98, -1, -0.01, 463.46, 256.23)">p</text><text class="cls-3" transform="matrix(-0.12, 0.97, -0.99, -0.13, 463.25, 277.09)">h</text><text class="cls-3" transform="matrix(-0.23, 0.95, -0.97, -0.24, 460.71, 297.78)">o</text><text class="cls-3" transform="matrix(-0.34, 0.92, -0.94, -0.34, 455.86, 318.04)">t</text><text class="cls-3" transform="matrix(-0.43, 0.88, -0.9, -0.44, 448.76, 337.68)">o</text><text class="cls-3" transform="matrix(-0.53, 0.82, -0.84, -0.54, 439.53, 356.39)">g</text><text class="cls-3" transform="matrix(-0.61, 0.76, -0.78, -0.63, 428.29, 374)">r</text><text class="cls-3" transform="matrix(-0.69, 0.69, -0.71, -0.71, 415.21, 390.29)">a</text><text class="cls-3" transform="matrix(-0.76, 0.61, -0.63, -0.78, 400.44, 405.09)">p</text><text class="cls-3" transform="matrix(-0.82, 0.53, -0.54, -0.84, 384.17, 418.21)">h</text><text class="cls-3" transform="matrix(-0.87, 0.44, -0.45, -0.9, 366.59, 429.51)">y</text><text class="cls-3" transform="matrix(-0.92, 0.34, -0.35, -0.94, 347.92, 438.88)"> </text><text class="cls-4" transform="matrix(-0.95, 0.21, -0.21, -0.98, 328.8, 446.6)"> </text><circle class="cls-5" cx="304.04" cy="461.37" r="22.9"/><circle class="cls-5" cx="234.56" cy="462.37" r="22.9"/><circle class="cls-5" cx="171.09" cy="443.46" r="22.9"/><circle class="cls-5" cx="118.76" cy="405.26" r="22.9"/><circle class="cls-5" cx="68.05" cy="292.89" r="22.9"/><circle class="cls-5" cx="81.96" cy="355.45" r="22.9"/><circle class="cls-5" cx="71.96" cy="228.45" r="22.9"/><text x="16.88" y="41.98"/></svg>