<svg id="Ebene_1" data-name="Ebene 1" xmlns="http://www.w3.org/2000/svg" viewBox="0 0 264.34 377.99"><defs><style>.cls-1{fill:#d60651;}</style></defs><path class="cls-1" d="M238.89,58.85H126.12V17.34H238.89Z" transform="translate(7.43 -17.34)"/><rect class="cls-1" x="79.21" y="53.09" width="112.78" height="41.51"/><rect class="cls-1" x="40.64" y="109.34" width="112.78" height="41.51"/><rect class="cls-1" x="31.77" y="167.15" width="112.78" height="41.51"/><rect class="cls-1" x="40.64" y="225.29" width="112.78" height="41.51"/><rect class="cls-1" x="79.21" y="280.57" width="112.78" height="41.51"/><rect class="cls-1" x="133.54" y="335.12" width="112.78" height="41.51"/><path class="cls-1" d="M329.15-121.19" transform="translate(7.43 -17.34)"/><path class="cls-1" d="M118,36.17H245.75c9.65,0,9.66-15,0-15H118c-9.66,0-9.67,15,0,15Z" transform="translate(7.43 -17.34)"/><path class="cls-1" d="M114.13,45.7q67.77-.84,135.49-3.77c9.62-.41,9.67-15.42,0-15q-67.71,2.94-135.49,3.77c-9.64.12-9.67,15.12,0,15Z" transform="translate(7.43 -17.34)"/><path class="cls-1" d="M112.84,52.74q68.43,2.44,136.85-1.6c9.6-.57,9.66-15.57,0-15q-68.35,4.05-136.85,1.6c-9.66-.35-9.64,14.65,0,15Z" transform="translate(7.43 -17.34)"/><path class="cls-1" d="M188.4,76.07A1208.92,1208.92,0,0,0,63.73,79.38c-7.86.61-10.84,13-2,14.73a884,884,0,0,0,128.88,15.74c4.53.21,9-5,7.24-9.5a34.07,34.07,0,0,0-9.33-13.89c-2.36-2.07-6.25-3.12-9.08-1.17-7.12,4.89-15.5,5.11-23.86,5-11.06-.13-22.12-.42-33.18-.64l-66.62-1.3c-8.23-.16-10.49,13.28-2,14.73l15.94,2.72L66.43,93.28a7.32,7.32,0,0,1-3.84,2.09c-4,.54-7.5,3.07-7.5,7.5,0,3.9,3.44,7.72,7.5,7.5q49.86-2.58,99.77-.42c9.66.41,9.64-14.59,0-15q-49.86-2.16-99.77.42v15c5.7-.76,10.19-2.55,14.45-6.49,3.89-3.59,2.26-11.58-3.31-12.53l-16-2.72-2,14.73,70.6,1.38c11,.21,22.11.73,33.15.57,9.6-.14,19.4-1.52,27.48-7.07l-9.09-1.17a18.48,18.48,0,0,1,5.46,7.27l7.23-9.49A855.52,855.52,0,0,1,65.73,79.64l-2,14.74A1208.92,1208.92,0,0,1,188.4,91.07c9.66.24,9.65-14.76,0-15Z" transform="translate(7.43 -17.34)"/><path class="cls-1" d="M149.31,125.42H37.59C29,125.43,10.7,122,8.26,134a7.81,7.81,0,0,0,3.45,8.47,39.23,39.23,0,0,0,26,6.18l-2-14.73-27,8.3c-8,2.47-6.63,14.68,2,14.74a165.42,165.42,0,0,1,19.9,1.32l-3.79-14-9.46,4.77c-7.46,3.76-2.18,16.9,5.78,13.71,1.54-.62,1.46-.68,1.71.27l5.24-9.23L25.05,155l4,14.46c19.89-5.1,41.75.39,61.89,1.64a517.67,517.67,0,0,0,65.2-.17c6-.38,9-6,6.48-11.28-3-6.43-9.13-9.74-15.47-12.15-5.29-2-11.28-3-15-7.67l-5.3,12.8A65.5,65.5,0,0,1,149.44,155a7.68,7.68,0,0,0,8.47-3.45c3.77-5.85.52-14.18-6.4-15.59-9.43-1.92-13.46,12.54-4,14.47l-3-3.52,1-3.79L145,144l8.47-3.45a78.51,78.51,0,0,0-26.58-2.91c-6.88.45-9.39,7.71-5.31,12.81s10.17,7.51,16.13,9.6c4.44,1.56,9.82,2.56,12,7.18l6.48-11.29A516.9,516.9,0,0,1,89,156c-21.15-1.38-43-6.34-63.94-1-9.37,2.4-5.41,16.63,4,14.46l5.06-1.16c4-.92,6.22-5.43,5.23-9.23-2.2-8.45-11.77-14.12-20.16-10.75L25,162l9.46-4.77c2.91-1.47,4.32-5.43,3.45-8.47-1-3.45-3.88-5.08-7.23-5.51a165.42,165.42,0,0,0-19.9-1.32l2,14.73,27-8.3c7.68-2.36,6.76-15.79-2-14.74a26.42,26.42,0,0,1-18.45-4.13L22.73,138c-.27,1.3-2.52,1.58-1.95,2.46.2.3,3.5,0,4,0H149.31c9.65,0,9.67-15,0-15Z" transform="translate(7.43 -17.34)"/><path class="cls-1" d="M9.88,200.47l55.94-.22c8.84,0,17.68-.18,26.51-.06,7.86.11,15.9.59,23.1,4.05l-1.52-11.78c-2.15,2.23-8.33,1-11.11.94l-15.6-.16L58,192.93C38,192.72,17.72,191.5-2,195.3c-3.66.7-5.84,4.8-5.38,8.23.54,4,3.6,6,7.37,6.5l43.27,5.57v-15A115.77,115.77,0,0,0,7.6,207.31C2.92,209-.55,216.05,4.29,219.84c5.92,4.64,12.16,5.53,19.53,5.4,8.39-.14,16.77-.12,25.16.25a361.86,361.86,0,0,1,49.88,5.7c9.43,1.75,13.48-12.71,4-14.46a393.43,393.43,0,0,0-46.13-5.82q-11.6-.76-23.21-.78c-3.48,0-7,.08-10.44.13-2.25,0-6.21.51-8.16-1l-3.31,12.54a102.1,102.1,0,0,1,31.68-6.17c9.92-.32,9.32-13.8,0-15L0,195l2,14.73c20.73-4,42.76-2,63.76-1.75l31.2.33c9.17.09,20.52,2,27.57-5.27,3.13-3.23,3-9.63-1.52-11.78-16.52-7.94-35.44-6.12-53.25-6l-59.87.23c-9.65,0-9.67,15,0,15Z" transform="translate(7.43 -17.34)"/><path class="cls-1" d="M151.92,242.84,20.83,241.09c-8.27-.11-10.45,13-2,14.73,1.6.32,3.18.87,4.77,1.16q1.89,1.45.68-.13c0,1.3.68.49,2.12-2.45-4.17,1.29-7.52,7-4.48,11,1,1.41,1.47,2,1.46,3.72,0,4.41,3.47,7,7.5,7.5,38.47,4.68,76.27-9.42,114.75-5.49l-7.23-9.49a83.12,83.12,0,0,0-2.31,15.77L147.37,271c-17.48-9.5-37.58-10.72-57.1-10.52a316,316,0,0,0-64.13,7.42c-9.43,2.06-5.44,16.52,4,14.46a294.64,294.64,0,0,1,58.21-6.85c17.34-.29,35.85,0,51.46,8.44a7.59,7.59,0,0,0,11.29-6.48,62,62,0,0,1,1.77-11.79c1.26-5.1-2.36-9-7.23-9.49-38.48-3.93-76.28,10.17-114.75,5.49l7.5,7.5a18.1,18.1,0,0,0-3.51-11.29l-4.48,11a12.77,12.77,0,0,0,8.36-16c-2-7.18-9.26-10.18-15.93-11.5l-2,14.73,131.09,1.75c9.65.13,9.66-14.87,0-15Z" transform="translate(7.43 -17.34)"/><path class="cls-1" d="M64.61,312l109,1.74-6.48-11.29c-2,3.37-4,6-8.17,5.94-4.36-.1-8.88-1.52-13.2-2.16a270.1,270.1,0,0,0-28-2.7,261.72,261.72,0,0,0-56.85,4.11c-4.12.74-6.07,5.57-5.24,9.23,1.87,8.25,7.91,14.28,15.85,16.85l-3.31-12.53-3.61,3.29c-7.16,6.51,3.48,17.1,10.6,10.61l3.62-3.3c4.37-4,1.79-10.88-3.31-12.53-3.12-1-4.68-3.3-5.38-6.38l-5.23,9.23a243.81,243.81,0,0,1,62.51-3c10.27.82,20.35,3.41,30.58,4.18,9.82.73,17.31-5.14,22.06-13.28a7.56,7.56,0,0,0-6.47-11.28L64.61,297c-9.65-.15-9.66,14.85,0,15Z" transform="translate(7.43 -17.34)"/><path class="cls-1" d="M114.13,367.06l7.29.32-3.79-1-1.3-1.16-.76-5.78c.6-.63.59-.63,0,0-.3.32-.61.62-.93.92a22.55,22.55,0,0,0-2.6,3,14.85,14.85,0,0,0-2.61,7.14,16.25,16.25,0,0,0,4.87,12.66c7.3,7.48,19.21,9.43,29.18,9.64,5.18.11,10-6.67,6.48-11.29a242.48,242.48,0,0,1-19.36-29.09l-8.47,11a44,44,0,0,1,5.19,2.22c2.49,1.32,1.27,1.34,1.42-.07l1-3.78c-.89,2-2.84,3.51-4.23,5.25a29.93,29.93,0,0,0-4.24,7,26.57,26.57,0,0,0-1.52,15.78c.57,3.11,4.17,5.62,7.24,5.51q61.31-2.1,122.63-3.21c9.64-.18,9.67-15.18,0-15q-61.32,1.1-122.63,3.21l7.23,5.51c-1.64-9,9.75-12.58,9.59-21.18-.17-9.16-10.57-13.05-17.72-15.7-6.4-2.37-11.47,5.69-8.47,11A242.4,242.4,0,0,0,137,389.07l6.48-11.28c-4.92-.1-10-.68-14.55-2.67-1.26-.55-3.44-1.39-4.18-2.66s-.47-.43,1-2c3.41-3.63,6-7.87,3.6-12.88-2.86-5.92-9.55-5.32-15.15-5.56-9.65-.42-9.63,14.58,0,15Z" transform="translate(7.43 -17.34)"/><path class="cls-1" d="M114.18,60.45l101.58-6.16c9.6-.59,9.66-15.59,0-15L114.18,45.45c-9.6.58-9.66,15.58,0,15Z" transform="translate(7.43 -17.34)"/><path class="cls-1" d="M65.92,85.41A737.08,737.08,0,0,0,154.6,84c9.56-.72,9.64-15.73,0-15a737.08,737.08,0,0,1-88.68,1.38c-9.65-.43-9.63,14.57,0,15Z" transform="translate(7.43 -17.34)"/><path class="cls-1" d="M186.51,84.18l-.2.38-5.5-7.23q-1,13.49-1.94,27c-.69,9.64,14.31,9.59,15,0q1-13.47,1.94-27c.25-3.5-2.56-6.1-5.51-7.23-2.66-1-5-.84-7.78-.38-9.5,1.57-5.47,16,4,14.46Z" transform="translate(7.43 -17.34)"/><path class="cls-1" d="M151.5,131,145,162.28c-1.94,9.42,12.51,13.45,14.47,4L166,135c1.94-9.42-12.51-13.45-14.47-4Z" transform="translate(7.43 -17.34)"/><path class="cls-1" d="M247.05,41.81l-93.84-1.6c-9.66-.16-9.66,14.84,0,15l93.84,1.6c9.66.16,9.66-14.84,0-15Z" transform="translate(7.43 -17.34)"/></svg>